<svg width="512" height="512" viewBox="-50 -80 1109 512" fill="none" xmlns="http://www.w3.org/2000/svg">
<g clip-path="url(#clip0_3_530)">
<path d="M836 -2.26498e-06C840.596 2.7216 842.3 6.44845 844.438 11.1875C846.429 24.6875 843.423 36.8794 840.615 50.0693C839.393 55.8919 838.355 61.7428 837.395 67.6138C837.11 69.3322 836.818 71.0491 836.52 72.7651C827.997 122.18 820.689 193.168 838 241C838.381 242.493 838.738 243.993 839.062 245.5C839.218 246.212 839.374 246.923 839.535 247.656C839.874 249.364 840.166 251.08 840.43 252.801C844.407 275.109 853.892 299.492 873 313C881.942 318.745 889.998 320.11 900.562 318.645C914.313 315.521 926.663 307.29 937 298C938.071 297.124 938.071 297.124 939.164 296.23C943.78 292.425 947.41 288.202 951.062 283.473C952.821 281.229 954.651 279.113 956.562 277C961.868 270.997 966.184 264.334 970.438 257.562C984.707 235.061 984.707 235.061 994.625 231.812C999.833 232.102 1003.48 233.466 1007.18 237.199C1010.53 242.353 1009.62 248.076 1009 254C1008.19 257.663 1006.75 260.688 1005 264C1004.66 264.65 1004.32 265.3 1003.97 265.969C996.623 279.975 988.488 292.775 977.57 304.281C975.398 306.579 973.308 308.913 971.25 311.312C968.533 314.453 965.668 317.384 962.676 320.262C960.889 322.053 960.889 322.053 959.102 324.441C947.668 338.361 925.651 352.754 907.277 354.82C906.196 354.88 905.114 354.939 904 355C903.301 355.041 902.603 355.082 901.883 355.124C878.677 356.308 858.334 348.897 840.812 333.562C806.506 301.833 798.321 246.687 796.453 202.27C795.955 189.431 795.721 176.598 795.688 163.75C795.682 162.054 795.682 162.054 795.676 160.324C795.634 134.108 797.597 108.091 800 82C799.606 82.6624 799.212 83.3248 798.806 84.0073C796.16 88.4398 793.492 92.8313 790.625 97.125C787.305 102.292 784.597 107.658 781.911 113.169C780.094 116.876 778.203 120.439 776 123.938C772.797 129.079 770.314 134.523 767.803 140.025C767.322 141.074 767.322 141.074 766.832 142.145C766.551 142.767 766.27 143.389 765.98 144.031C765 146 765 146 763.605 148.264C761.642 151.61 760.062 155.087 758.488 158.625C758.159 159.36 757.829 160.095 757.49 160.853C756.426 163.233 755.368 165.616 754.312 168C753.952 168.813 753.591 169.626 753.219 170.464C747.741 182.831 742.456 195.221 738 208C737.703 208.85 737.407 209.7 737.101 210.575C731.993 225.338 726.883 240.298 723.5 255.562C721.794 262.638 718.745 269.255 713.562 274.437C712.717 274.953 711.871 275.469 711 276C710.477 276.367 709.953 276.735 709.414 277.113C704.344 280.451 699.866 280.708 693.996 279.633C687.693 277.832 683.611 273.315 680 268C678.155 263.364 677.553 258.91 677.219 253.973C677.16 253.198 677.102 252.424 677.042 251.627C676.854 249.106 676.677 246.584 676.5 244.062C676.373 242.32 676.245 240.578 676.116 238.836C674.975 223.231 673.954 207.617 673 192C671.345 194.482 670.155 196.678 668.938 199.375C668.497 200.35 668.056 201.324 667.602 202.328C666.362 205.132 665.187 207.96 664.023 210.797C659.766 221.099 655.134 230.757 649.262 240.238C647.678 242.8 646.286 245.386 644.977 248.098C638.816 260.684 629.822 269.609 617 275C609.784 277.102 604.758 275.877 598.293 272.336C597.536 271.895 596.78 271.454 596 271C595.072 270.464 594.144 269.927 593.188 269.375C583.664 259.035 582.906 242.269 582.355 228.871C582.197 225.075 581.953 221.316 581.524 217.541C579.431 198.667 579.768 179.759 579.863 160.799C579.883 156.186 579.892 151.572 579.902 146.959C579.924 137.973 579.957 128.986 580 120C576.58 122.047 573.182 124.12 569.812 126.25C568.953 126.791 568.093 127.333 567.207 127.891C565.383 129.091 563.571 130.312 561.805 131.597C555.71 136.018 549.513 139.462 542.688 142.625C541.671 143.101 540.654 143.577 539.606 144.067C526.396 150.196 513.597 154.316 499.405 157.457C497.402 157.909 495.408 158.404 493.418 158.91C474.732 163.495 455.071 163.617 436 162C434.773 161.898 433.546 161.796 432.281 161.691C428.49 161.27 424.751 160.685 421 160C420.034 159.824 419.068 159.647 418.073 159.466C400.162 156.1 383.134 151.171 366 145C365.228 144.727 364.456 144.454 363.661 144.172C359.068 142.545 354.525 140.806 350 139C349.166 138.67 348.332 138.34 347.473 138C325.057 129.069 303.243 118.849 282.349 106.77C274.646 102.319 266.809 98.1762 258.885 94.1323C252.764 90.9912 246.866 87.5925 241 84C209.423 64.8423 177.295 49.5463 141 42C139.772 41.7332 138.543 41.4663 137.277 41.1914C106.946 35.5164 72.6209 43.313 46.6133 59.4219C44 61 44 61 41 62.4961C38.0971 63.9513 35.4156 65.5544 32.6875 67.3125C31.7323 67.9274 30.7771 68.5423 29.793 69.1758C27.3522 70.7699 24.9222 72.3779 22.5 74C21.782 74.477 21.064 74.9539 20.3242 75.4453C18.609 76.5927 16.9048 77.7567 15.207 78.9297C14.2518 79.5716 13.2966 80.2136 12.3125 80.875C11.0073 81.7683 11.0073 81.7683 9.67578 82.6797C6.5457 84.2242 4.44833 84.3256 1 84C-0.540762 82.4592 -0.243567 81.0156 -0.3125 78.875C-0.211769 73.0876 1.69514 69.2299 5.80078 65.2578C7.15645 64.0733 8.5281 62.9068 9.91406 61.7578C13.9928 58.3207 17.6338 54.4118 21.3398 50.582C34.1012 38.1954 50.035 28.3574 66.0918 20.8906C67.8887 20.0519 69.6715 19.1832 71.4531 18.3125C107.563 1.51728 148.009 9.24493 184 22C189.721 24.1789 195.322 26.6089 200.914 29.0947C203.527 30.2285 206.171 31.2598 208.829 32.2827C229.221 40.1523 248.787 51.3105 267.125 63.125C276.11 68.8978 285.615 73.6549 295.116 78.5107C297.846 79.9206 300.557 81.3618 303.262 82.8203C365.494 116.295 438.254 141.616 508.804 121.052C537.443 112.104 561.159 94.2466 581.104 72.2148C587.04 65.7001 593.337 59.6516 602 57.125C606.711 56.9287 610.202 57.48 613.895 60.6016C618.883 65.8735 621.87 71.4305 622.08 78.8083C621.918 81.9501 621.639 85.0587 621.312 88.1875C621.209 89.3295 621.106 90.4716 621 91.6482C620.685 95.1009 620.346 98.5503 620 102C617.476 127.826 616.847 153.523 616.931 179.457C616.942 183.032 616.946 186.607 616.951 190.182C616.962 197.121 616.979 204.061 617 211C618.32 211 619.64 211 621 211C621.281 210.293 621.561 209.586 621.851 208.857C627.114 195.774 632.597 182.741 638.613 169.984C640.283 166.39 641.862 162.761 643.438 159.125C645.723 153.851 648.097 148.63 650.562 143.437C652.884 138.544 654.977 133.616 656.938 128.562C659.846 121.077 663.387 113.978 667.062 106.844C668.422 104.169 669.702 101.456 671 98.75C676.158 88.4624 681.777 78.3164 693 74C697.176 73.1461 700.467 73.1075 704.215 75.2891C710.053 80.051 713.766 85.524 714.621 93.082C715.138 98.3557 714.921 103.531 714.625 108.812C714.559 110.175 714.559 110.175 714.492 111.564C714.255 116.235 713.92 120.877 713.469 125.531C712.819 133.092 712.85 140.648 712.87 148.231C712.875 150.721 712.87 153.211 712.863 155.701C712.864 157.284 712.865 158.867 712.867 160.449C712.865 161.194 712.863 161.939 712.861 162.706C712.567 166.142 712.567 166.142 714 169C718.874 159.402 723.553 149.717 728.179 139.998C731.671 132.665 735.251 125.444 739.25 118.375C739.844 117.319 739.844 117.319 740.451 116.243C742.795 112.091 745.19 107.974 747.625 103.875C750.091 99.6853 752.304 95.4308 754.438 91.0625C757.296 85.2494 760.5 79.7837 763.949 74.3047C767.469 68.6334 770.716 62.8098 774 57C775.331 54.6654 776.665 52.3326 778 50C778.66 50 779.32 50 780 50C780.262 49.2807 780.523 48.5614 780.793 47.8203C782.046 44.8934 783.522 42.5056 785.312 39.875C786.016 38.8399 786.72 37.8048 787.445 36.7383C787.844 36.1564 788.243 35.5746 788.653 34.9751C790.195 32.714 791.718 30.4411 793.242 28.168C794.39 26.4659 795.539 24.764 796.688 23.0625C797.507 21.8373 797.507 21.8373 798.343 20.5874C802.335 14.7108 806.771 9.98395 812.125 5.3125C813.119 4.44045 813.119 4.44045 814.133 3.55078C820.169 -1.46284 828.44 -1.48001 836 -2.26498e-06Z" fill="#2C3E50"/>
<path d="M133 110C137.703 113.128 141.215 116.54 143 122C143.598 126.114 143.977 130.075 142.051 133.871C139.058 137.658 135.705 140.6 130.86 141.316C126.933 141.518 124.593 141.335 121.125 139.375C116.374 134.065 115.481 129.589 115.727 122.617C116.193 118.15 117.319 115.429 120.77 112.496C124.999 109.528 127.939 107.954 133 110Z" fill="#2C3E50"/>
</g>
<defs>
<clipPath id="clip0_3_530">
<rect width="1109" height="512" fill="white"/>
</clipPath>
</defs>
</svg>
