<svg width="1378" height="523" viewBox="0 0 1378 523" fill="none" xmlns="http://www.w3.org/2000/svg">
<g clip-path="url(#clip0_1_5)">
<path d="M1146.12 -0.5C1146.81 -0.518772 1147.49 -0.537544 1148.19 -0.556885C1154.41 -0.477312 1157.78 1.96373 1162.23 6.04297C1171.18 15.8494 1171.55 24.7069 1171.14 37.5471C1170.74 44.4804 1169.3 51.266 1167.94 58.0625C1167.62 59.7236 1167.3 61.3849 1166.98 63.0464C1165.48 70.8981 1163.87 78.7259 1162.15 86.5352C1161.93 87.5489 1161.93 87.5489 1161.7 88.5831C1160.44 94.3506 1160.44 94.3506 1159.93 96.6177C1157.14 109.352 1155.25 122.161 1153.6 135.088C1153.5 135.817 1153.41 136.546 1153.31 137.297C1153.06 139.263 1152.82 141.23 1152.57 143.197C1152.15 145.982 1151.65 148.619 1151.01 151.351C1149.9 156.196 1149.3 161.034 1148.78 165.973C1148.68 166.917 1148.58 167.861 1148.47 168.834C1148.14 171.909 1147.82 174.986 1147.5 178.062C1147.39 179.122 1147.28 180.181 1147.17 181.272C1144.03 211.751 1142.22 242.351 1143 273C1143.03 274.304 1143.03 274.304 1143.07 275.633C1144.07 313.895 1147.07 350.71 1156 388C1156.32 389.336 1156.32 389.336 1156.64 390.7C1162.2 413.247 1172.31 437.618 1188 455C1188.65 455.717 1189.29 456.433 1189.96 457.172C1198.22 465.854 1206.44 469.982 1218 473C1218.64 473.175 1219.28 473.35 1219.94 473.531C1236.32 477.256 1253.81 472.151 1267.99 464.027C1274.21 459.839 1279.46 454.654 1284.62 449.258C1287 447 1287 447 1290 446C1290.67 444.671 1291.34 443.337 1292 442C1293.55 440.325 1295.14 438.683 1296.75 437.062C1304.12 429.337 1309.68 420.349 1315.45 411.405C1327.98 392.004 1327.98 392.004 1331.36 388.648C1333.54 386.458 1335.43 384.085 1337.38 381.688C1338.56 380.23 1338.56 380.23 1339.78 378.742C1341.07 377.149 1342.35 375.552 1343.63 373.945C1344.71 372.596 1345.85 371.291 1347 370C1347.66 370 1348.32 370 1349 370C1349.37 369.109 1349.37 369.109 1349.74 368.199C1352.31 363.702 1357.34 360.917 1362.16 359.254C1365.74 358.585 1367.94 358.972 1371.25 360.438C1376.07 364.931 1378.48 370.405 1378.81 376.987C1378.81 378.045 1378.81 378.045 1378.81 379.125C1378.81 379.882 1378.82 380.639 1378.82 381.419C1378.32 393.95 1372.11 406.862 1365 417C1364.08 418.633 1363.18 420.279 1362.31 421.938C1353.08 438.97 1342.47 456.93 1329 471C1328.34 471 1327.68 471 1327 471C1326.75 471.557 1326.5 472.114 1326.25 472.688C1323.02 478.67 1318.13 482.7 1313 487C1312.14 487.727 1311.28 488.454 1310.39 489.203C1304.46 494.132 1298.4 498.714 1292 503C1290.78 503.845 1290.78 503.845 1289.53 504.707C1278.77 511.898 1266.63 517.963 1254 521C1252.8 521.333 1251.6 521.667 1250.37 522.01C1246.12 523.068 1242.09 523.354 1237.72 523.406C1236.95 523.418 1236.18 523.429 1235.39 523.441C1233.77 523.46 1232.15 523.473 1230.52 523.48C1228.1 523.5 1225.68 523.562 1223.26 523.625C1197.07 523.978 1174.35 509.82 1156 492C1148.36 484.38 1142.43 476.256 1137 467C1136.36 465.907 1135.71 464.814 1135.05 463.688C1130.56 455.659 1126.86 447.331 1123.25 438.875C1122.56 437.267 1122.56 437.267 1121.86 435.626C1108.73 404.328 1103.09 369.572 1099.23 336.026C1099.01 334.061 1098.77 332.098 1098.53 330.134C1091.48 269.147 1093.99 204.447 1103.71 143.884C1104.2 140.934 1104.2 140.934 1103 138C1102.67 138.692 1102.34 139.384 1102 140.098C1099.16 145.937 1096.14 151.533 1092.75 157.062C1085.55 168.836 1079.37 181.169 1073.25 193.526C1064.37 211.378 1054.93 228.957 1045.63 246.593C1040.78 255.811 1035.94 265.033 1031.32 274.374C1028.57 279.914 1025.72 285.397 1022.86 290.882C1016.67 302.737 1010.65 314.656 1004.81 326.688C1004.5 327.336 1004.18 327.985 1003.86 328.654C1000.63 335.287 997.536 341.927 994.87 348.808C993.071 353.341 990.885 357.696 988.781 362.094C987.061 365.778 985.559 369.535 984.067 373.316C982.971 376.072 981.838 378.81 980.695 381.547C974.398 396.709 968.593 412.003 963.036 427.45C948.762 466.938 948.762 466.938 933.621 475.316C926.389 478.648 918.938 479.363 911.227 477.234C901.414 473.522 895.588 468.164 890.826 458.865C884.837 445.346 885.835 427.935 885.441 413.484C885.42 412.733 885.399 411.983 885.378 411.209C884.767 388.714 884.887 366.21 884.931 343.708C884.942 337.854 884.946 331.999 884.951 326.145C884.962 314.763 884.979 303.382 885 292C883.722 294.711 882.445 297.422 881.168 300.133C880.629 301.275 880.629 301.275 880.08 302.441C877.334 308.271 874.649 314.126 872 320C871.229 321.688 870.458 323.375 869.688 325.062C867.817 329.173 865.98 333.296 864.154 337.426C858.739 349.66 853.163 361.782 847.128 373.723C844.044 379.849 841.117 386.045 838.233 392.267C836.078 396.876 833.758 401.344 831.257 405.774C830.03 407.947 828.832 410.132 827.641 412.324C813.821 437.613 813.821 437.613 806 445C804.85 446.112 804.85 446.112 803.676 447.246C793.61 456.58 784.345 462.568 770.312 462.312C765.325 461.842 761.392 460.35 757 458C756.206 457.576 755.412 457.152 754.594 456.715C745.715 451.403 741.487 443.169 738.375 433.562C738.082 432.662 737.789 431.762 737.488 430.834C731.049 409.92 729.969 387.729 729 366C728.956 365.031 728.912 364.063 728.867 363.064C726.092 300.973 725.337 238.693 730.762 176.719C731.036 173.584 731.298 170.448 731.559 167.312C731.643 166.298 731.727 165.284 731.814 164.238C731.906 163.13 731.906 163.13 732 162C728.869 163.461 726.16 165.222 723.355 167.234C675.238 201.266 621.332 214.583 562.875 206.25C561.332 206.033 561.332 206.033 559.759 205.812C544.511 203.416 529.683 198.471 515.062 193.625C514.304 193.374 513.545 193.123 512.763 192.864C495.05 186.96 478.011 179.665 461 172C459.935 171.522 458.87 171.045 457.773 170.553C449.412 166.79 441.094 162.934 432.802 159.02C414.619 150.44 396.402 142.116 377.688 134.75C376.54 134.297 376.54 134.297 375.369 133.834C336.83 118.42 336.83 118.42 296 114C297.237 115.176 297.237 115.176 298.5 116.375C301 119 301 119 301 121C301.572 121.241 302.145 121.482 302.734 121.73C315.508 128.888 323.812 147.044 327.688 160.625C332.749 179.458 329.743 197.732 321 215C309.522 234.245 292.781 247.915 271.036 253.505C249.311 258.636 229.464 255.539 210 245C209.025 244.477 208.051 243.953 207.047 243.414C187.842 232.165 177.527 214.004 172 193C168.733 178.901 169.389 161.371 175 148C175.468 146.865 175.468 146.865 175.945 145.707C178.362 140.458 181.691 135.719 185 131C185.694 129.977 185.694 129.977 186.402 128.934C190.254 123.482 194.891 119.269 200 115C193.344 111.672 178.719 117.845 171.951 119.947C164.854 122.351 157.911 125.11 151 128C149.489 128.631 149.489 128.631 147.947 129.274C133.969 135.201 121.092 142.208 108.371 150.476C106.144 151.908 103.896 153.293 101.629 154.66C93.7102 159.446 86.359 164.613 79.1836 170.457C69.852 178 69.852 178 67 178C66.67 178.99 66.34 179.98 66 181C65.1956 181.309 64.3912 181.619 63.5625 181.938C60.8841 182.715 60.8841 182.715 60.1094 184.852C58.7257 187.531 57.116 188.67 54.6875 190.438C51.1203 193.048 48.0914 195.838 45 199C43.6113 200.369 42.2204 201.736 40.8281 203.102C39.302 204.609 37.7759 206.117 36.25 207.625C35.4701 208.388 34.6902 209.151 33.8867 209.938C32.7749 211.04 32.7749 211.04 31.6406 212.164C30.9655 212.829 30.2903 213.493 29.5947 214.178C27.7804 216.014 27.7804 216.014 27 219C28.0635 218.843 29.1269 218.685 30.2226 218.523C64.0137 214.36 95.9999 224.313 127.164 236.351C136.732 240.002 146.443 243.171 156.187 246.312C156.977 246.567 157.766 246.822 158.579 247.084C163.714 248.739 168.855 250.376 174 252C175.206 252.381 176.412 252.761 177.655 253.154C195.192 258.622 212.719 262.16 231 264C232.382 264.144 232.382 264.144 233.791 264.29C244.631 265.275 255.5 265.244 266.375 265.25C267.402 265.251 268.429 265.251 269.488 265.252C284.219 265.237 298.514 264.92 313 262C313.915 261.823 314.831 261.646 315.774 261.464C321.601 260.322 327.388 259.049 333.165 257.674C335.017 257.233 336.873 256.802 338.73 256.381C365.334 250.327 390.636 239.461 415.562 228.562C416.609 228.111 417.655 227.659 418.732 227.193C425.706 224.141 432.369 220.734 439 217C440.576 216.133 442.153 215.267 443.73 214.402C445.216 213.581 446.702 212.76 448.188 211.938C448.929 211.53 449.671 211.122 450.436 210.701C454.805 208.282 459.03 205.745 463.175 202.957C466.127 201.409 468.768 201.604 472 202C473 203 473 203 473.457 205.086C472.737 209.675 469.762 212.279 466.688 215.625C466.093 216.293 465.498 216.96 464.885 217.648C463.273 219.449 461.652 221.236 460 223C459.222 223.848 459.222 223.848 458.429 224.712C457 226 457 226 455 226C454.776 226.559 454.551 227.119 454.32 227.695C452.604 230.691 450.447 232.575 447.875 234.875C447.379 235.318 446.884 235.762 446.373 236.219C443.083 239.13 439.7 241.819 436.141 244.387C433.438 246.424 430.889 248.617 428.312 250.812C422.168 256.01 415.665 260.495 409 265C407.331 266.185 405.665 267.372 404 268.562C363.264 296.903 317.559 312.511 268 312.312C267.007 312.31 266.015 312.308 264.992 312.305C234.44 312.187 203.649 308.235 175 297C174.068 296.64 173.135 296.279 172.174 295.908C156.095 289.651 140.499 282.634 125.032 275.002C118.266 271.665 111.493 268.341 104.718 265.022C102.077 263.725 99.4395 262.422 96.8022 261.117C88.8853 257.219 80.9501 253.439 72.793 250.066C72.1319 249.793 71.4709 249.519 70.7899 249.237C63.3679 246.239 55.7335 244.034 48 242C46.8759 241.691 45.7519 241.381 44.5937 241.062C36.3791 239.028 28.3314 238.569 19.9016 238.466C13.4161 238.323 6.50445 237.845 1.27586 233.6C-1.95612 229.547 -0.445621 221.958 -1.48416e-05 217C0.829204 213.621 2.19877 210.965 3.99999 208C4.58264 207.018 5.1653 206.035 5.76561 205.023C7.46079 202.227 9.19084 199.457 10.9399 196.694C11.9739 195.042 12.9776 193.371 13.9805 191.699C18.5459 184.09 23.5377 176.99 29 170C30.0751 168.616 30.0751 168.616 31.1719 167.203C34.576 162.878 38 158.795 42 155C46.4283 150.69 50.5731 146.263 54.5195 141.504C55.0081 141.008 55.4966 140.511 56 140C56.66 140 57.32 140 58 140C58 139.34 58 138.68 58 138C59.5933 136.565 61.2525 135.202 62.9375 133.875C66.4959 131.04 69.9338 128.176 73.25 125.062C82.115 117.1 92.7519 111.052 102.902 104.887C104.553 103.881 106.201 102.871 107.825 101.823C112.861 98.59 118.029 95.8695 123.437 93.3125C124.338 92.8868 125.238 92.4611 126.166 92.0225C157.412 77.4686 190.486 66.8182 225 64C226.102 63.8904 227.204 63.7809 228.34 63.668C280.802 59.1609 331.599 70.4315 380 90C381 90.4009 382 90.8018 383.03 91.2148C398.403 97.3983 413.423 104.266 428.414 111.318C432.001 113.001 435.595 114.669 439.191 116.332C440.369 116.877 441.547 117.422 442.761 117.983C445.129 119.078 447.499 120.172 449.868 121.265C455.151 123.71 460.409 126.181 465.605 128.805C477.301 134.677 489.204 139.495 501.5 143.938C502.259 144.213 503.018 144.489 503.799 144.772C518.208 149.979 532.626 154.006 547.75 156.625C548.972 156.837 550.193 157.048 551.452 157.266C598.454 165.237 648.146 163.257 688.688 135.438C695.425 130.653 701.769 125.422 708 120C708.761 119.362 709.521 118.724 710.305 118.066C714.122 114.832 717.398 111.475 720.574 107.613C722 106 722 106 724.938 103.562C730.067 99.2707 734.155 94.2195 738.062 88.8125C740.701 85.2192 743.502 82.754 747 80C747.701 79.2163 748.402 78.4325 749.125 77.625C757.633 69.8567 766.145 66.6098 777.48 66.7266C783.838 67.2205 787.832 69.4989 792.188 74.0625C802.34 86.9338 802.174 103.001 800.766 118.594C800.15 123.788 799.317 128.945 798.466 134.104C797.783 138.351 797.177 142.608 796.562 146.865C795.331 155.363 794.05 163.842 792.548 172.296C784.269 219.441 781.753 267.243 781.69 315.043C781.688 317.041 781.682 319.039 781.676 321.037C781.671 324.787 781.682 328.536 781.699 332.285C781.698 333.381 781.698 334.477 781.697 335.606C781.765 343.216 782.666 350.51 784 358C789.518 348.66 794.396 339.219 798.763 329.286C800.891 324.452 803.098 319.704 805.5 315C808.298 309.514 810.827 303.946 813.312 298.312C816.681 290.696 820.388 283.342 824.335 276.012C827.555 269.979 830.379 263.833 833.102 257.562C836.15 250.568 839.532 243.769 842.996 236.972C849.443 224.313 855.571 211.529 861.461 198.602C885.892 145.014 885.892 145.014 897 130C897.638 129.073 898.276 128.146 898.934 127.191C906.138 116.841 913.897 110.034 926 106C938.727 105.045 938.727 105.045 944 109C952.312 117.312 957.274 124.902 957.312 137C957.249 153.182 955.134 169.556 952.996 185.57C951.671 195.78 951.07 206.041 950.438 216.312C950.373 217.342 950.309 218.371 950.242 219.431C948.282 250.967 947.829 282.41 948 314C948.567 312.846 949.134 311.693 949.719 310.504C951.852 306.239 954.154 302.088 956.5 297.938C961.008 289.899 965.284 281.752 969.517 273.566C973.142 266.582 976.893 259.681 980.791 252.846C983.161 248.657 985.104 244.43 987 240C988.329 237.461 989.755 234.982 991.188 232.5C994.265 227.102 997.278 221.679 1000.19 216.188C1000.52 215.559 1000.85 214.931 1001.2 214.284C1001.68 213.366 1001.68 213.366 1002.18 212.43C1006.97 203.403 1011.94 194.47 1016.87 185.519C1019.21 181.254 1021.55 176.986 1023.88 172.711C1027.36 166.337 1030.86 159.978 1034.38 153.625C1035 152.496 1035.62 151.367 1036.26 150.203C1040.06 143.336 1044.04 136.63 1048.18 129.965C1050.55 126.101 1052.77 122.167 1054.94 118.188C1055.79 116.644 1056.64 115.101 1057.49 113.559C1057.91 112.798 1058.33 112.037 1058.76 111.253C1060.69 107.742 1062.66 104.245 1064.62 100.75C1065 100.088 1065.37 99.4255 1065.75 98.7432C1068.71 93.4916 1071.71 88.2585 1074.7 83.0273C1077.65 77.8624 1080.57 72.6798 1083.5 67.5C1084.63 65.5065 1085.76 63.513 1086.88 61.5195C1088.72 58.2716 1090.55 55.0203 1092.37 51.7617C1095.75 45.7179 1099.29 39.8933 1103.36 34.2812C1104.58 32.5832 1105.76 30.8554 1106.92 29.1133C1113.55 19.1995 1120.19 10.9307 1130 4C1130.63 3.52562 1131.26 3.05125 1131.91 2.5625C1136.35 -0.246519 1140.98 -0.396939 1146.12 -0.5ZM220.395 168.848C216.493 174.869 215.816 180.985 217 188C219.188 193.702 222.627 197.08 228 200C234.003 202.001 240.681 202.009 246.437 199.25C249.849 197.264 253.266 195.207 254.566 191.297C255.722 185.177 256.577 178.144 253.719 172.445C249.433 167.283 244.238 163.649 237.551 162.625C230.736 162.291 224.989 163.56 220.395 168.848Z" fill="#F2E399"/>
</g>
<defs>
<clipPath id="clip0_1_5">
<rect width="1378" height="523" fill="white"/>
</clipPath>
</defs>
</svg>
